<svg width="64" height="64" viewBox="0 0 64 64" fill="none" xmlns="http://www.w3.org/2000/svg">
<rect width="64" height="64" rx="10" fill="url(#paint0_linear_2233_3)"/>
<path d="M14.2485 54.9363C13.0759 54.9363 11.96 54.7661 10.9009 54.4257C9.84176 54.1231 8.93393 53.4422 8.1774 52.3831C8.55567 50.5674 9.00958 48.6193 9.53915 46.5389C10.1065 44.4206 10.7118 42.2645 11.3548 40.0706C11.9979 37.8389 12.6409 35.6639 13.2839 33.5456C13.9648 31.3895 14.6079 29.3847 15.2131 27.5312C15.8183 25.6777 16.3668 24.0512 16.8585 22.6516C17.3503 21.2521 17.7285 20.1929 17.9933 19.4742C18.1068 19.1716 18.2959 18.7366 18.5607 18.1692C18.8255 17.564 19.147 16.9588 19.5253 16.3536C19.9035 15.7483 20.3385 15.2377 20.8303 14.8216C21.322 14.3677 21.8516 14.1407 22.419 14.1407C22.9486 14.1407 23.4781 14.3299 24.0077 14.7081C22.8351 17.4316 21.6435 20.4388 20.4331 23.7297C19.2605 27.0206 18.1257 30.4249 17.0287 33.9428C15.9318 37.4228 14.9294 40.8271 14.0216 44.1558C13.1137 47.4846 12.3572 50.5107 11.752 53.2341C12.2816 53.3098 12.7166 53.3665 13.057 53.4044C13.4353 53.4422 13.8135 53.4611 14.1918 53.4611C16.6127 53.4611 18.939 52.8937 21.1707 51.7589C23.4403 50.662 25.5396 49.1489 27.4688 47.2198C29.4358 45.2528 31.1568 43.0211 32.6321 40.5245C34.1073 37.9902 35.2421 35.3234 36.0364 32.5243C36.8686 29.6873 37.2847 26.8693 37.2847 24.0701C37.2847 21.0062 36.793 18.4907 35.8095 16.5238C34.826 14.519 33.4642 13.0438 31.7242 12.0981C29.9842 11.1525 27.9605 10.6796 25.6531 10.6796C23.1944 10.6796 20.9816 11.1714 19.0146 12.1548C17.0477 13.1383 15.4968 14.4622 14.362 16.1266C13.2272 17.791 12.6598 19.6634 12.6598 21.7438C12.6598 22.1977 12.6787 22.5949 12.7166 22.9353C12.7922 23.2758 12.8679 23.5784 12.9435 23.8432C11.6952 23.8432 10.8063 23.5405 10.2768 22.9353C9.78502 22.2923 9.53915 21.5358 9.53915 20.6658C9.53915 19.3418 9.99306 18.0179 10.9009 16.694C11.8465 15.3323 13.1326 14.084 14.7592 12.9492C16.4235 11.8144 18.3337 10.9066 20.4898 10.2257C22.6459 9.50701 24.9344 9.14766 27.3553 9.14766C30.7597 9.14766 33.4832 9.84745 35.5258 11.247C37.6062 12.6088 39.1193 14.4622 40.0649 16.8075C41.0106 19.1527 41.4834 21.7816 41.4834 24.6942C41.4834 27.9851 40.9728 31.1436 39.9514 34.1697C38.9301 37.158 37.5117 39.9193 35.696 42.4537C33.9182 44.9502 31.8755 47.1441 29.5681 49.0354C27.2607 50.8889 24.7831 52.3263 22.1353 53.3476C19.5253 54.4068 16.8964 54.9363 14.2485 54.9363ZM39.6451 51.8157C38.0186 51.8157 36.8649 51.305 36.184 50.2837C35.5032 49.3002 35.1627 48.0898 35.1627 46.6524C35.1627 45.4798 35.3519 44.2693 35.7301 43.0211C36.1084 41.7728 36.6001 40.6002 37.2053 39.5032C37.8484 38.4063 38.5482 37.5173 39.3047 36.8365C40.0991 36.1556 40.8934 35.8152 41.6878 35.8152C41.8769 35.8152 42.066 35.853 42.2552 35.9286C42.4821 35.9665 42.6902 36.0232 42.8793 36.0989C42.5388 36.4015 42.1228 36.9689 41.631 37.801C41.1771 38.5954 40.7421 39.5221 40.326 40.5813C39.9099 41.6026 39.5506 42.6239 39.248 43.6452C38.9832 44.6665 38.8508 45.5365 38.8508 46.2552C38.8508 47.39 39.0399 48.2222 39.4182 48.7517C39.7964 49.2435 40.2882 49.4893 40.8934 49.4893C41.6878 49.4893 42.6334 49.0733 43.7304 48.2411C44.8273 47.3711 45.9054 46.2741 46.9645 44.9502C45.9054 44.0802 45.0732 42.9454 44.468 41.5458C43.9006 40.1084 43.6169 38.6521 43.6169 37.1769C43.6169 35.9286 43.8249 34.756 44.241 33.6591C44.6949 32.5621 45.338 31.6921 46.1702 31.0491C47.0023 30.3682 48.0047 30.0277 49.1774 30.0277C50.7282 30.0277 51.7685 30.4438 52.298 31.276C52.8276 32.1082 53.0924 33.1484 53.0924 34.3967C53.0924 35.8719 52.733 37.5173 52.0143 39.333C51.2956 41.1108 50.3878 42.8319 49.2908 44.4963C49.9717 44.8745 50.6904 45.0637 51.4469 45.0637C52.0521 45.0637 52.733 44.9502 53.4895 44.7232C54.2461 44.4585 54.9837 44.0235 55.7024 43.4182C56.4589 42.813 57.0641 41.9998 57.518 40.9784L58.1989 41.5458C57.4424 43.3237 56.3643 44.5908 54.9648 45.3474C53.603 46.0661 52.298 46.4254 51.0498 46.4254C50.558 46.4254 50.0852 46.3876 49.6313 46.3119C49.1774 46.1985 48.7424 46.0472 48.3263 45.858C47.0402 47.5602 45.6217 48.9787 44.0708 50.1135C42.5578 51.2483 41.0825 51.8157 39.6451 51.8157ZM47.9858 43.475C48.9315 42.0754 49.7069 40.6191 50.3121 39.106C50.9552 37.5552 51.2767 36.0989 51.2767 34.7371C51.2767 33.6402 51.1065 32.8458 50.7661 32.3541C50.4634 31.8245 50.0663 31.5597 49.5745 31.5597C48.818 31.5597 48.0426 32.1082 47.2482 33.2052C46.4539 34.3021 46.0567 35.6828 46.0567 37.3471C46.0567 38.4441 46.208 39.56 46.5106 40.6947C46.851 41.7917 47.3428 42.7184 47.9858 43.475Z" fill="white"/>
<defs>
<linearGradient id="paint0_linear_2233_3" x1="58" y1="3" x2="4" y2="64" gradientUnits="userSpaceOnUse">
<stop stop-color="#FF0000"/>
<stop offset="0.269231" stop-color="#F9C61F"/>
<stop offset="0.509615" stop-color="#00FF73"/>
<stop offset="0.764423" stop-color="#00FFFB"/>
<stop offset="0.99675" stop-color="#006AFF"/>
</linearGradient>
</defs>
</svg>
